#!OML:ASF F:\VICON\USERDATA\INSTALL\rory3\rory3.ASF
:FULLY-SPECIFIED
:DEGREES
134
root -0.728672 16.9616 39.039 1.63936 5.90888 1.09555
lowerback 17.0853 1.07218 -1.1809
upperback 0.0522511 1.14785 -0.413905
thorax -9.57069 0.593257 -0.0646771
lowerneck -21.0121 -5.63621 -1.7616
upperneck 11.0541 -8.06947 5.96342
head 7.12227 -3.38562 1.25431
rclavicle -1.18727e-014 -1.78596e-014
rhumerus -44.6994 10.9414 -98.988
rradius 93.9075
rwrist -18.5465
rhand -19.0798 39.4704
rfingers 7.12502
rthumb 7.2281 9.61381
lclavicle -1.18727e-014 -1.78596e-014
lhumerus -50.7743 -6.06081 90.8038
lradius 99.5359
lwrist 37.3669
lhand -29.8761 9.29253
lfingers 7.12502
lthumb -3.19776 39.2483
rfemur -11.3733 -5.64279 18.7022
rtibia 111.591
rfoot 27.7932 -12.2648
rtoes 17.1751
lfemur -26.3682 1.00204 -29.0415
ltibia 48.0966
lfoot -19.6712 -1.16066
ltoes -1.79389
135
root -0.719667 16.8971 39.5213 2.02335 5.96476 1.11014
lowerback 16.692 0.952242 -1.07474
upperback 0.0971195 1.00401 -0.546056
thorax -9.29332 0.516244 -0.224707
lowerneck -21.2563 -5.6642 -1.59238
upperneck 11.0203 -8.15214 5.96694
head 7.1476 -3.41286 1.21364
rclavicle -1.78596e-014 1.7667e-014
rhumerus -45.4003 9.30269 -98.7924
rradius 91.6786
rwrist -18.1853
rhand -19.8033 39.8428
rfingers 7.12502
rthumb 6.52975 9.96343
lclavicle -1.78596e-014 1.7667e-014
lhumerus -48.2374 -7.18706 91.1488
lradius 99.6874
lwrist 37.6417
lhand -28.7126 6.52103
lfingers 7.12502
lthumb -2.07417 36.4907
rfemur -14.8884 -6.61083 17.851
rtibia 114.255
rfoot 27.5691 -10.6589
rtoes 19.0903
lfemur -25.0338 0.209214 -28.8771
ltibia 48.5273
lfoot -21.2333 0.633182
ltoes -2.6559
136
root -0.722422 16.8567 39.9941 2.11459 5.72492 1.12982
lowerback 16.6718 0.953329 -1.17753
upperback 0.215285 0.978094 -0.640819
thorax -9.15231 0.505764 -0.260478
lowerneck -21.7722 -5.61458 -1.15835
upperneck 11.2364 -8.17268 5.66989
head 7.27114 -3.41478 1.03344
rclavicle -2.65378e-014 2.08227e-014
rhumerus -46.1916 7.73906 -98.5292
rradius 90.0185
rwrist -17.3895
rhand -20.295 38.6604
rfingers 7.12502
rthumb 6.055 8.76692
lclavicle -2.65378e-014 2.08227e-014
lhumerus -45.6609 -8.24844 91.4506
lradius 100.038
lwrist 37.2641
lhand -27.6039 4.43194
lfingers 7.12502
lthumb -1.00333 34.4093
rfemur -18.1457 -7.27726 17.2001
rtibia 116.466
rfoot 27.0479 -9.51223
rtoes 22.0155
lfemur -23.5736 -0.169696 -28.694
ltibia 49.1479
lfoot -22.7144 2.19279
ltoes -3.67715
137
root -0.731574 16.8441 40.4701 2.65661 4.89741 1.05512
lowerback 16.2619 1.17494 -1.48186
upperback 0.127699 1.22201 -0.620818
thorax -9.02577 0.636746 -0.118407
lowerneck -22.5069 -5.70523 -1.06857
upperneck 11.6368 -8.32775 5.55166
head 7.51852 -3.46891 0.939956
rclavicle -9.6659e-015 2.79292e-014
rhumerus -47.335 6.34383 -98.1462
rradius 89.0921
rwrist -16.1975
rhand -20.1378 40.3427
rfingers 7.12502
rthumb 6.20675 10.4536
lclavicle -9.6659e-015 2.79292e-014
lhumerus -43.3289 -9.05602 91.7976
lradius 100.618
lwrist 36.1931
lhand -26.9629 4.07423
lfingers 7.12502
lthumb -0.38425 34.0536
rfemur -22.1593 -7.14663 17.1071
rtibia 118.139
rfoot 26.6336 -8.95003
rtoes 24.5998
lfemur -22.4371 0.165449 -28.4784
ltibia 49.2724
lfoot -23.7889 2.94067
ltoes -3.30451
138
root -0.732295 16.8465 40.946 3.20921 4.36641 1.32296
lowerback 15.9796 1.2446 -1.99219
upperback -0.100287 1.2181 -0.664544
thorax -9.12636 0.658042 0.126635
lowerneck -21.9197 -5.49961 -1.20499
upperneck 11.2353 -8.00974 5.70465
head 7.29271 -3.33277 1.07014
rclavicle -2.99419e-015 -1.15295e-014
rhumerus -49.0004 5.22878 -97.8764
rradius 88.9473
rwrist -14.9577
rhand -20.1338 40.8288
rfingers 7.12502
rthumb 6.21065 10.9398
lclavicle -2.99419e-015 -1.15295e-014
lhumerus -41.6274 -9.49533 92.1102
lradius 101.621
lwrist 34.7132
lhand -26.7029 4.10394
lfingers 7.12502
lthumb -0.133133 34.0836
rfemur -26.0476 -7.36468 16.6014
rtibia 119.341
rfoot 26.2655 -7.93868
rtoes 25.8118
lfemur -20.9582 0.315986 -28.6798
ltibia 49.0427
lfoot -24.6475 3.51308
ltoes -2.47524
